<svg width="64" height="64" viewBox="0 0 64 64" fill="none" xmlns="http://www.w3.org/2000/svg">
  <defs>
    <linearGradient id="favBg" x1="0" y1="0" x2="64" y2="64" gradientUnits="userSpaceOnUse">
      <stop offset="0%" stop-color="#1D4ED8" />
      <stop offset="100%" stop-color="#0EA5E9" />
    </linearGradient>
  </defs>
  <rect width="64" height="64" rx="14" fill="url(#favBg)" />
  <path d="M33 12L42 21V45C42 46.6569 40.6569 48 39 48H17C15.3431 48 14 46.6569 14 45V15C14 13.3431 15.3431 12 17 12H33Z" fill="white" fill-opacity="0.95" />
  <line x1="19" y1="26" x2="33" y2="26" stroke="#94A3B8" stroke-width="2" stroke-linecap="round" />
  <line x1="19" y1="32" x2="37" y2="32" stroke="#94A3B8" stroke-width="2" stroke-linecap="round" />
  <line x1="19" y1="38" x2="30" y2="38" stroke="#94A3B8" stroke-width="2" stroke-linecap="round" />
  <circle cx="42" cy="44" r="11" fill="#10B981" />
  <path d="M36 44L40 48L49 39" stroke="white" stroke-width="2.5" stroke-linecap="round" stroke-linejoin="round" />
  <circle cx="50" cy="18" r="9" fill="#FCD34D" stroke="#D97706" stroke-width="1" />
  <text x="50" y="22" text-anchor="middle" font-size="12" font-weight="bold" fill="#92400E" font-family="sans-serif">¥</text>
</svg>
